<svg id="svg" version="1.1" xmlns="http://www.w3.org/2000/svg" xmlns:xlink="http://www.w3.org/1999/xlink" width="400" height="400" viewBox="0, 0, 400,400"><g id="svgg"><path id="path0" d="M206.495 48.909 C 206.671 49.193,206.086 49.378,205.371 49.265 C 205.210 49.240,205.122 49.438,205.176 49.707 C 205.229 49.976,204.922 50.196,204.492 50.196 C 204.063 50.196,203.711 50.400,203.711 50.649 C 203.711 51.128,201.803 52.782,201.283 52.752 C 201.115 52.742,200.977 52.954,200.977 53.223 C 200.977 53.491,200.757 53.711,200.488 53.711 C 200.220 53.711,200.043 53.799,200.096 53.906 C 200.313 54.346,198.345 56.630,197.957 56.390 C 197.725 56.246,197.641 56.299,197.769 56.507 C 198.040 56.946,196.731 59.101,196.396 58.766 C 196.273 58.643,196.188 58.773,196.208 59.056 C 196.275 59.998,194.442 63.663,194.031 63.409 C 193.810 63.272,193.742 63.343,193.880 63.567 C 194.019 63.790,193.782 65.340,193.355 67.010 C 192.928 68.680,192.575 70.590,192.572 71.254 C 192.567 72.217,192.482 72.343,192.148 71.875 C 191.822 71.420,191.786 71.507,191.983 72.266 C 192.123 72.803,192.390 74.607,192.577 76.276 C 192.764 77.945,193.199 80.280,193.544 81.465 C 193.888 82.651,194.047 83.834,193.897 84.095 C 193.747 84.357,193.773 84.435,193.955 84.270 C 194.136 84.106,194.694 84.862,195.194 85.950 C 195.737 87.132,196.275 87.824,196.529 87.668 C 196.802 87.499,196.786 87.717,196.484 88.281 C 196.174 88.861,196.161 89.067,196.445 88.891 C 196.682 88.745,196.875 88.822,196.875 89.063 C 196.875 89.308,197.089 89.371,197.363 89.206 C 197.648 89.035,197.607 89.220,197.266 89.648 C 196.943 90.053,196.879 90.265,197.124 90.118 C 197.706 89.770,198.588 90.846,198.215 91.449 C 198.037 91.738,198.092 91.815,198.358 91.651 C 198.787 91.386,199.860 92.871,199.683 93.486 C 199.632 93.663,199.749 93.710,199.944 93.589 C 200.138 93.469,201.153 94.335,202.200 95.514 C 203.246 96.693,204.312 97.578,204.570 97.481 C 204.828 97.384,204.963 97.516,204.870 97.774 C 204.680 98.304,207.681 100.650,208.314 100.466 C 208.541 100.400,208.477 100.654,208.172 101.030 C 207.867 101.405,207.816 101.593,208.060 101.447 C 208.464 101.205,210.390 102.398,210.996 103.266 C 211.135 103.466,211.540 103.518,211.895 103.382 C 212.250 103.245,212.441 103.296,212.319 103.493 C 212.197 103.691,212.278 103.964,212.500 104.102 C 212.722 104.239,212.784 104.558,212.639 104.812 C 212.494 105.066,212.514 105.148,212.684 104.994 C 213.114 104.606,214.529 105.420,214.240 105.889 C 214.110 106.098,214.149 106.244,214.326 106.213 C 215.159 106.069,215.645 106.292,215.392 106.701 C 215.236 106.954,215.284 107.047,215.501 106.913 C 216.066 106.563,217.639 107.783,217.327 108.328 C 217.181 108.581,217.201 108.663,217.372 108.510 C 217.801 108.122,219.217 108.936,218.927 109.404 C 218.798 109.614,218.917 109.737,219.191 109.678 C 219.466 109.619,219.699 109.817,219.709 110.119 C 219.719 110.421,220.057 110.716,220.461 110.776 C 220.865 110.835,221.756 111.426,222.440 112.089 C 223.124 112.752,223.833 113.160,224.014 112.995 C 224.196 112.830,224.239 112.880,224.111 113.105 C 223.983 113.331,224.480 114.275,225.214 115.203 C 225.949 116.132,226.452 117.050,226.332 117.244 C 226.212 117.439,226.347 117.549,226.631 117.490 C 226.917 117.431,227.125 117.686,227.095 118.062 C 227.065 118.436,227.191 118.649,227.373 118.537 C 227.837 118.250,229.399 121.436,229.133 122.128 C 229.013 122.441,229.081 122.595,229.283 122.469 C 229.813 122.142,230.556 125.232,230.298 126.693 C 230.130 127.646,230.163 127.751,230.442 127.148 C 230.711 126.568,230.804 126.970,230.804 128.711 C 230.804 130.374,230.706 130.828,230.466 130.273 C 230.249 129.772,230.211 130.179,230.360 131.409 C 230.494 132.518,230.442 133.234,230.237 133.108 C 230.042 132.988,229.871 133.452,229.857 134.138 C 229.843 134.824,229.271 136.535,228.587 137.939 C 227.141 140.907,227.090 141.179,228.074 140.652 C 228.475 140.438,228.885 140.344,228.985 140.443 C 229.085 140.543,229.167 140.369,229.167 140.056 C 229.167 139.743,229.020 139.578,228.841 139.689 C 228.662 139.799,228.516 139.692,228.516 139.450 C 228.516 139.194,228.829 139.109,229.264 139.247 C 229.676 139.378,230.127 139.299,230.268 139.072 C 230.408 138.845,230.674 138.753,230.859 138.867 C 231.169 139.058,231.816 138.388,231.830 137.861 C 231.843 137.371,234.234 135.073,235.082 134.735 C 235.578 134.538,235.893 134.229,235.782 134.049 C 235.470 133.543,236.717 131.984,237.196 132.280 C 237.430 132.425,237.516 132.373,237.387 132.165 C 237.071 131.653,238.451 129.605,238.862 129.977 C 239.041 130.140,239.067 130.062,238.919 129.804 C 238.586 129.224,240.006 126.476,240.438 126.866 C 240.610 127.021,240.623 126.928,240.468 126.658 C 240.151 126.108,241.010 123.388,241.421 123.642 C 241.566 123.731,241.608 123.326,241.515 122.742 C 241.381 121.905,241.434 121.804,241.766 122.266 C 242.084 122.708,242.124 122.526,241.931 121.521 C 241.784 120.759,241.826 120.283,242.029 120.406 C 242.225 120.525,242.400 119.449,242.421 117.988 C 242.442 116.540,242.566 114.581,242.697 113.635 C 242.833 112.651,242.802 112.242,242.624 112.680 C 242.397 113.243,242.242 112.831,242.042 111.130 C 241.732 108.487,240.987 106.108,239.618 103.383 C 239.096 102.343,238.771 101.328,238.895 101.127 C 239.019 100.926,238.888 100.810,238.603 100.869 C 238.317 100.929,238.110 100.673,238.139 100.297 C 238.169 99.924,238.056 99.703,237.887 99.807 C 237.567 100.005,236.934 98.865,237.057 98.311 C 237.096 98.134,236.968 98.088,236.771 98.210 C 236.357 98.466,234.924 96.481,235.102 95.898 C 235.168 95.684,235.086 95.644,234.920 95.810 C 234.544 96.185,231.206 92.966,231.491 92.504 C 231.605 92.319,231.466 92.216,231.181 92.275 C 230.897 92.335,230.712 92.150,230.771 91.865 C 230.830 91.581,230.721 91.445,230.529 91.564 C 230.066 91.850,228.447 90.433,228.816 90.065 C 228.973 89.907,228.926 89.831,228.711 89.894 C 228.048 90.090,226.525 89.049,226.807 88.592 C 226.972 88.326,226.894 88.272,226.606 88.450 C 226.021 88.811,224.919 87.947,225.260 87.395 C 225.407 87.158,225.322 87.106,225.057 87.270 C 224.583 87.563,222.526 86.198,222.891 85.833 C 223.005 85.719,222.780 85.651,222.389 85.684 C 221.999 85.716,221.717 85.543,221.762 85.300 C 221.807 85.057,221.544 84.881,221.176 84.909 C 220.809 84.938,220.542 84.771,220.584 84.538 C 220.626 84.305,220.444 84.115,220.181 84.115 C 219.357 84.115,217.572 82.747,217.837 82.319 C 217.976 82.094,217.915 82.018,217.702 82.150 C 217.154 82.488,215.557 81.285,215.874 80.772 C 216.018 80.539,215.967 80.453,215.760 80.580 C 215.313 80.857,213.086 79.168,213.086 78.553 C 213.086 78.317,212.964 78.169,212.815 78.223 C 212.341 78.393,209.785 75.675,210.036 75.268 C 210.169 75.054,210.090 74.995,209.861 75.136 C 209.350 75.452,206.963 72.302,207.300 71.756 C 207.434 71.540,207.367 71.472,207.151 71.605 C 206.583 71.957,204.439 67.384,203.889 64.648 C 203.231 61.369,203.790 55.109,204.692 55.667 C 204.864 55.773,204.906 55.481,204.785 55.018 C 204.635 54.444,204.708 54.263,205.012 54.451 C 205.290 54.623,205.382 54.524,205.253 54.189 C 204.966 53.441,205.772 51.462,206.245 51.755 C 206.475 51.897,206.528 51.722,206.374 51.323 C 206.186 50.833,206.256 50.739,206.635 50.973 C 206.975 51.184,207.059 51.141,206.878 50.850 C 206.503 50.242,207.358 48.743,207.892 49.073 C 208.144 49.228,208.214 49.162,208.060 48.913 C 207.916 48.679,207.461 48.513,207.051 48.543 C 206.640 48.574,206.390 48.739,206.495 48.909 M207.370 134.948 C 207.270 135.048,200.828 135.148,193.056 135.171 C 182.428 135.201,178.946 135.325,179.013 135.672 C 179.062 135.925,178.902 136.096,178.658 136.050 C 178.338 135.990,178.197 138.960,178.149 146.781 C 178.113 152.728,178.049 157.628,178.007 157.670 C 177.964 157.712,174.909 157.797,171.217 157.859 C 167.525 157.920,164.592 158.111,164.697 158.282 C 164.868 158.558,163.985 158.767,163.184 158.640 C 163.022 158.615,162.931 158.726,162.981 158.887 C 163.135 159.385,161.602 160.911,161.198 160.662 C 160.988 160.532,160.922 160.597,161.051 160.805 C 161.376 161.331,160.366 164.139,159.984 163.773 C 159.814 163.610,159.815 164.092,159.986 164.844 C 160.157 165.596,160.314 205.674,160.334 253.906 C 160.369 336.933,160.408 341.670,161.061 342.883 C 161.440 343.587,161.643 344.339,161.510 344.552 C 161.378 344.766,161.495 344.893,161.770 344.834 C 162.044 344.775,162.277 344.990,162.287 345.313 C 162.297 345.635,162.480 345.913,162.695 345.930 C 163.655 346.009,165.214 346.591,165.074 346.819 C 164.988 346.957,177.980 347.070,193.945 347.070 C 209.910 347.070,222.903 346.959,222.819 346.823 C 222.735 346.686,223.197 346.355,223.846 346.086 C 224.495 345.817,225.349 345.188,225.743 344.687 C 226.137 344.186,226.526 343.844,226.608 343.926 C 227.278 344.596,227.554 164.686,226.887 162.356 C 226.632 161.468,226.456 160.610,226.493 160.449 C 226.531 160.288,226.343 160.200,226.074 160.254 C 225.806 160.308,225.630 160.132,225.684 159.863 C 225.737 159.595,225.649 159.403,225.488 159.437 C 224.918 159.558,223.836 158.898,224.046 158.557 C 224.163 158.367,223.958 158.328,223.589 158.469 C 223.161 158.634,223.013 158.575,223.179 158.306 C 223.347 158.034,223.141 157.963,222.596 158.106 C 222.132 158.227,221.852 158.167,221.973 157.972 C 222.172 157.650,219.235 157.634,211.833 157.915 L 209.408 158.008 209.242 147.266 C 209.074 136.369,209.032 135.571,208.626 135.615 C 207.858 135.698,207.409 135.493,207.617 135.156 C 207.864 134.757,207.699 134.619,207.370 134.948 M218.210 167.794 C 218.074 168.148,218.141 168.299,218.372 168.156 C 218.635 167.994,218.750 175.049,218.719 189.424 C 218.688 203.375,218.537 210.852,218.288 210.698 C 218.068 210.562,217.960 210.853,218.035 211.383 L 218.164 212.305 193.970 212.405 C 174.874 212.485,169.711 212.403,169.464 212.015 C 169.090 211.425,169.028 167.821,169.401 167.448 C 170.033 166.816,218.454 167.159,218.210 167.794 M169.714 189.844 C 169.714 201.768,169.763 206.646,169.824 200.684 C 169.885 194.722,169.885 184.966,169.824 179.004 C 169.763 173.042,169.714 177.920,169.714 189.844 M194.017 226.902 C 195.035 226.854,195.015 226.829,193.750 226.563 L 192.383 226.275 193.870 226.223 C 195.881 226.154,198.884 226.938,198.568 227.449 C 198.423 227.683,198.506 227.738,198.763 227.579 C 199.368 227.206,202.011 228.496,201.694 229.009 C 201.555 229.234,201.619 229.308,201.835 229.174 C 202.341 228.862,203.711 229.855,203.711 230.535 C 203.711 230.821,203.945 231.055,204.231 231.055 C 204.910 231.055,205.904 232.425,205.591 232.930 C 205.457 233.147,205.537 233.207,205.769 233.064 C 206.813 232.418,208.398 237.123,208.382 240.820 C 208.365 244.523,206.788 249.206,205.769 248.577 C 205.514 248.420,205.462 248.501,205.636 248.782 C 206.021 249.406,202.922 252.506,202.298 252.120 C 202.012 251.943,201.935 251.999,202.099 252.264 C 202.429 252.798,200.930 253.654,200.322 253.278 C 200.073 253.124,199.986 253.177,200.124 253.400 C 200.515 254.032,196.625 255.081,193.998 255.051 C 192.262 255.031,191.817 254.928,192.383 254.677 C 192.922 254.439,192.668 254.399,191.565 254.550 C 188.886 254.915,181.719 250.672,182.602 249.243 C 182.755 248.997,182.647 248.855,182.353 248.916 C 182.067 248.975,181.860 248.720,181.889 248.344 C 181.919 247.970,181.806 247.750,181.637 247.854 C 181.223 248.110,180.793 246.908,181.114 246.389 C 181.277 246.125,181.182 246.090,180.853 246.293 C 180.482 246.522,180.404 246.436,180.576 245.988 C 180.708 245.644,180.633 245.302,180.410 245.228 C 179.974 245.082,179.317 242.223,179.353 240.625 L 179.375 239.648 179.688 240.625 C 179.979 241.534,180.003 241.542,180.039 240.746 C 180.061 240.275,179.932 239.799,179.753 239.689 C 179.574 239.578,179.505 238.954,179.601 238.302 C 179.697 237.651,179.929 237.213,180.117 237.329 C 180.306 237.445,180.354 237.265,180.224 236.927 C 179.949 236.209,180.809 233.907,181.251 234.180 C 181.417 234.283,181.528 234.061,181.499 233.687 C 181.469 233.311,181.677 233.056,181.963 233.115 C 182.247 233.174,182.371 233.047,182.239 232.832 C 181.900 232.284,185.173 228.829,185.803 229.071 C 186.087 229.180,186.277 229.055,186.226 228.795 C 186.175 228.534,186.396 228.320,186.719 228.320 C 187.041 228.320,187.480 228.115,187.695 227.864 C 188.358 227.091,191.532 226.212,192.259 226.602 C 192.621 226.795,193.412 226.930,194.017 226.902 M194.238 254.566 C 194.614 254.664,195.229 254.664,195.605 254.566 C 195.981 254.468,195.674 254.388,194.922 254.388 C 194.170 254.388,193.862 254.468,194.238 254.566 " stroke="none" fill="#f3141c" fill-rule="evenodd"></path><path id="path1" d="M233.008 93.750 C 234.066 94.824,235.019 95.703,235.127 95.703 C 235.234 95.703,234.457 94.824,233.398 93.750 C 232.340 92.676,231.387 91.797,231.279 91.797 C 231.172 91.797,231.950 92.676,233.008 93.750 M232.202 137.988 L 231.055 139.258 232.324 138.111 C 233.022 137.479,233.594 136.908,233.594 136.841 C 233.594 136.539,233.271 136.805,232.202 137.988 M177.344 147.255 L 177.344 157.009 171.973 157.130 L 166.602 157.251 172.168 157.336 L 177.734 157.422 177.734 147.461 C 177.734 141.982,177.646 137.500,177.539 137.500 C 177.432 137.500,177.344 141.890,177.344 147.255 M209.936 147.461 C 209.936 153.047,209.991 155.278,210.058 152.418 C 210.125 149.559,210.124 144.989,210.057 142.262 C 209.990 139.536,209.936 141.875,209.936 147.461 M212.971 157.321 C 214.412 157.395,216.873 157.396,218.440 157.322 C 220.007 157.247,218.828 157.186,215.820 157.185 C 212.812 157.185,211.530 157.246,212.971 157.321 M203.686 250.488 L 202.539 251.758 203.809 250.611 C 204.507 249.979,205.078 249.408,205.078 249.341 C 205.078 249.039,204.756 249.305,203.686 250.488 " stroke="none" fill="#410c0f" fill-rule="evenodd"></path><path id="path2" d="M205.814 49.171 C 198.030 54.384,192.076 63.992,192.228 71.094 C 192.247 71.957,192.462 71.330,192.812 69.392 C 193.426 65.992,195.095 61.506,196.709 58.917 C 198.360 56.267,201.195 53.093,201.656 53.378 C 201.897 53.527,201.961 53.453,201.806 53.204 C 201.572 52.824,206.852 48.438,207.544 48.438 C 207.681 48.438,207.305 49.272,206.709 50.293 C 199.918 61.927,204.110 73.091,219.288 83.795 C 221.248 85.178,224.295 87.324,226.059 88.565 C 243.389 100.755,247.301 118.165,236.088 133.203 C 235.367 134.170,235.540 134.056,236.678 132.813 C 240.306 128.849,242.759 121.639,242.725 115.039 C 242.668 103.695,237.151 95.664,222.461 85.540 C 204.092 72.881,199.531 61.624,207.804 49.366 C 209.443 46.937,209.187 46.912,205.814 49.171 M192.048 75.195 C 192.899 85.852,198.403 94.240,210.352 103.088 C 212.500 104.679,215.313 106.769,216.602 107.733 C 229.933 117.701,233.352 127.835,227.303 139.455 C 226.577 140.850,225.921 142.127,225.847 142.293 C 225.772 142.458,226.338 142.223,227.104 141.771 C 228.959 140.677,235.271 135.141,234.987 134.857 C 234.864 134.734,233.670 135.717,232.333 137.042 C 230.508 138.850,229.715 139.390,229.150 139.211 C 228.573 139.028,228.453 139.118,228.637 139.597 C 228.788 139.991,228.593 140.375,228.110 140.633 C 227.093 141.177,227.135 140.920,228.527 138.063 C 232.195 130.533,231.377 123.313,226.057 116.277 C 224.939 114.797,224.082 113.386,224.154 113.141 C 224.225 112.896,224.155 112.824,223.998 112.981 C 223.663 113.316,220.457 110.527,220.615 110.038 C 220.674 109.856,220.554 109.811,220.349 109.938 C 220.144 110.065,219.873 110.002,219.747 109.798 C 219.621 109.594,217.846 108.176,215.803 106.647 C 213.759 105.118,212.189 103.702,212.314 103.501 C 212.439 103.299,212.272 103.237,211.944 103.363 C 211.616 103.489,211.055 103.299,210.697 102.941 C 210.339 102.583,209.633 102.019,209.128 101.688 C 208.623 101.357,208.309 100.926,208.431 100.729 C 208.552 100.532,208.483 100.420,208.277 100.479 C 207.641 100.661,204.691 98.273,204.885 97.734 C 204.989 97.446,204.889 97.337,204.654 97.481 C 203.945 97.920,197.281 90.246,197.573 89.326 C 197.630 89.149,197.514 89.104,197.316 89.227 C 196.862 89.507,196.395 88.351,196.739 87.795 C 196.889 87.551,196.811 87.494,196.549 87.655 C 195.544 88.277,192.608 79.585,192.551 75.816 C 192.536 74.830,192.367 73.672,192.177 73.242 C 191.956 72.745,191.910 73.457,192.048 75.195 M179.263 135.266 C 177.854 136.348,177.734 137.298,177.734 147.408 L 177.734 157.368 171.582 157.493 C 163.685 157.653,160.109 159.454,160.173 163.242 C 160.188 164.125,160.259 164.065,160.715 162.789 C 162.188 158.661,164.217 157.813,172.616 157.813 L 178.089 157.813 178.205 147.231 L 178.320 136.649 179.242 135.902 C 180.668 134.749,206.832 134.749,208.258 135.902 C 209.177 136.646,209.180 136.684,209.375 147.328 L 209.570 158.008 215.625 157.797 L 221.680 157.586 215.723 157.504 L 209.766 157.422 209.766 147.236 L 209.766 137.049 208.624 135.907 L 207.482 134.766 193.682 134.778 C 183.451 134.787,179.723 134.914,179.263 135.266 M223.258 158.547 C 225.378 159.510,226.852 161.345,227.141 163.381 C 227.270 164.293,227.325 204.854,227.262 253.516 C 227.133 353.730,227.472 344.048,224.023 345.990 L 222.461 346.870 193.485 346.775 C 160.585 346.667,163.393 346.968,161.328 343.325 L 160.352 341.602 160.341 253.439 C 160.334 204.950,160.201 165.149,160.043 164.991 C 159.886 164.834,159.803 204.595,159.859 253.349 L 159.961 341.992 160.861 343.561 C 161.356 344.424,162.397 345.567,163.176 346.100 L 164.591 347.070 192.940 347.184 C 226.706 347.320,225.030 347.517,227.000 343.180 C 227.963 341.061,228.156 164.244,227.198 161.999 C 226.290 159.872,223.798 157.794,222.187 157.821 C 221.908 157.826,222.390 158.152,223.258 158.547 M169.401 167.448 C 169.076 167.773,169.053 211.036,169.378 211.882 C 169.633 212.547,217.695 212.868,218.104 212.207 C 218.203 212.046,207.359 211.914,194.006 211.914 L 169.727 211.914 169.626 189.743 L 169.525 167.572 193.771 167.673 L 218.017 167.773 217.998 189.141 C 217.988 201.128,218.132 210.602,218.326 210.721 C 218.716 210.963,218.907 168.833,218.520 167.825 C 218.266 167.163,170.056 166.793,169.401 167.448 M190.521 226.616 C 188.799 227.107,187.396 227.760,187.608 227.972 C 187.726 228.091,188.190 227.992,188.637 227.753 C 196.700 223.438,207.936 231.022,207.976 240.805 C 208.033 255.018,188.733 259.903,181.607 247.479 C 180.297 245.196,180.083 245.368,181.289 247.733 C 186.450 257.850,202.211 257.245,207.181 246.740 C 212.173 236.188,201.628 223.451,190.521 226.616 M184.007 230.383 C 179.988 234.403,178.066 241.425,180.052 244.833 C 180.544 245.677,180.545 245.610,180.096 242.871 C 179.232 237.592,181.785 231.832,186.328 228.815 C 186.865 228.458,187.071 228.157,186.785 228.145 C 186.499 228.134,185.249 229.141,184.007 230.383 " stroke="none" fill="#f91424" fill-rule="evenodd"></path><path id="path3" d="M202.148 96.484 C 203.207 97.559,204.160 98.438,204.268 98.438 C 204.375 98.438,203.597 97.559,202.539 96.484 C 201.481 95.410,200.527 94.531,200.420 94.531 C 200.313 94.531,201.090 95.410,202.148 96.484 M187.012 134.667 C 190.718 134.732,196.782 134.732,200.488 134.667 C 204.194 134.603,201.162 134.551,193.750 134.551 C 186.338 134.551,183.306 134.603,187.012 134.667 M227.926 252.344 C 227.926 300.791,227.972 320.610,228.027 296.387 C 228.083 272.163,228.083 232.524,228.027 208.301 C 227.972 184.077,227.926 203.896,227.926 252.344 M181.376 167.871 C 187.783 167.931,198.154 167.931,204.422 167.871 C 210.691 167.811,205.449 167.761,192.773 167.761 C 180.098 167.761,174.969 167.811,181.376 167.871 M181.962 212.012 C 188.691 212.072,199.590 212.071,206.181 212.011 C 212.771 211.951,207.266 211.902,193.945 211.902 C 180.625 211.902,175.232 211.952,181.962 212.012 " stroke="none" fill="#971016" fill-rule="evenodd"></path><path id="path4" d="M203.997 61.328 C 203.997 62.080,204.077 62.388,204.176 62.012 C 204.274 61.636,204.274 61.021,204.176 60.645 C 204.077 60.269,203.997 60.576,203.997 61.328 M210.156 75.513 C 210.156 75.580,210.728 76.151,211.426 76.782 L 212.695 77.930 211.548 76.660 C 210.479 75.477,210.156 75.211,210.156 75.513 M180.371 347.558 C 187.944 347.618,200.337 347.618,207.910 347.558 C 215.483 347.499,209.287 347.451,194.141 347.451 C 178.994 347.451,172.798 347.499,180.371 347.558 " stroke="none" fill="#c6121b" fill-rule="evenodd"></path></g></svg>