<svg width="512" height="512" viewBox="0 0 512 512" xmlns="http://www.w3.org/2000/svg">
    <defs>
        <linearGradient id="bg" x1="0%" y1="0%" x2="100%" y2="100%">
            <stop offset="0%" style="stop-color:#111827" />
            <stop offset="100%" style="stop-color:#374151" />
        </linearGradient>
        <linearGradient id="card" x1="0%" y1="0%" x2="100%" y2="100%">
            <stop offset="0%" style="stop-color:#ef4444" />
            <stop offset="100%" style="stop-color:#b91c1c" />
        </linearGradient>
    </defs>

    <!-- Background -->
    <rect width="512" height="512" fill="url(#bg)" rx="80" />

    <!-- Card -->
    <rect x="96" y="96" width="320" height="320" fill="url(#card)" rx="40" stroke="#fbbf24" stroke-width="8" />

    <!-- QR Code -->
    <rect x="160" y="160" width="192" height="192" fill="white" rx="8" />

    <!-- QR squares -->
    <rect x="176" y="176" width="32" height="32" fill="#111827" />
    <rect x="216" y="176" width="32" height="32" fill="#111827" />
    <rect x="256" y="176" width="32" height="32" fill="#111827" />
    <rect x="296" y="176" width="32" height="32" fill="#111827" />
    <rect x="336" y="176" width="32" height="32" fill="#111827" />

    <rect x="176" y="216" width="32" height="32" fill="#111827" />
    <rect x="256" y="216" width="32" height="32" fill="#111827" />
    <rect x="336" y="216" width="32" height="32" fill="#111827" />

    <rect x="176" y="256" width="32" height="32" fill="#111827" />
    <rect x="216" y="256" width="32" height="32" fill="#111827" />
    <rect x="256" y="256" width="32" height="32" fill="#111827" />
    <rect x="296" y="256" width="32" height="32" fill="#111827" />
    <rect x="336" y="256" width="32" height="32" fill="#111827" />

    <rect x="176" y="296" width="32" height="32" fill="#111827" />
    <rect x="256" y="296" width="32" height="32" fill="#111827" />
    <rect x="336" y="296" width="32" height="32" fill="#111827" />

    <rect x="176" y="336" width="32" height="32" fill="#111827" />
    <rect x="216" y="336" width="32" height="32" fill="#111827" />
    <rect x="256" y="336" width="32" height="32" fill="#111827" />
    <rect x="296" y="336" width="32" height="32" fill="#111827" />
    <rect x="336" y="336" width="32" height="32" fill="#111827" />

    <!-- Crown -->
    <path d="M 400 80 L 408 72 L 416 80 L 424 72 L 432 80 L 432 96 L 400 96 Z" fill="#f59e0b" />
    <circle cx="408" cy="88" r="2" fill="#111827" />
    <circle cx="416" cy="88" r="2" fill="#111827" />
    <circle cx="424" cy="88" r="2" fill="#111827" />
</svg>